<svg width="50" height="51" viewBox="0 0 50 51" fill="none" xmlns="http://www.w3.org/2000/svg">
<path d="M22.5 30.5H17.5C17.5 18.075 27.575 8 40 8V13C30.325 13 22.5 20.825 22.5 30.5ZM40 23V18C33.1 18 27.5 23.6 27.5 30.5H32.5C32.5 26.35 35.85 23 40 23ZM12.5 5.5C12.5 2.725 10.275 0.5 7.5 0.5C4.725 0.5 2.5 2.725 2.5 5.5C2.5 8.275 4.725 10.5 7.5 10.5C10.275 10.5 12.5 8.275 12.5 5.5ZM23.625 6.75H18.625C18.025 10.3 14.975 13 11.25 13H3.75C1.675 13 0 14.675 0 16.75V23H15V17.35C19.65 15.875 23.125 11.775 23.625 6.75ZM42.5 38C45.275 38 47.5 35.775 47.5 33C47.5 30.225 45.275 28 42.5 28C39.725 28 37.5 30.225 37.5 33C37.5 35.775 39.725 38 42.5 38ZM46.25 40.5H38.75C35.025 40.5 31.975 37.8 31.375 34.25H26.375C26.875 39.275 30.35 43.375 35 44.85V50.5H50V44.25C50 42.175 48.325 40.5 46.25 40.5Z" fill="#47BAFC"/>
</svg>
