<svg width="30" height="30" viewBox="0 0 35 36" fill="none" xmlns="http://www.w3.org/2000/svg">
<g clip-path="url(#clip0_326_216)">
<path d="M22.6042 20.8578H21.4521L21.0438 20.4641C22.4729 18.8016 23.3333 16.6432 23.3333 14.2953C23.3333 9.0599 19.0896 4.81615 13.8542 4.81615C8.61875 4.81615 4.375 9.0599 4.375 14.2953C4.375 19.5307 8.61875 23.7745 13.8542 23.7745C16.2021 23.7745 18.3604 22.9141 20.0229 21.4849L20.4167 21.8932V23.0453L27.7083 30.3224L29.8813 28.1495L22.6042 20.8578ZM13.8542 20.8578C10.2229 20.8578 7.29167 17.9266 7.29167 14.2953C7.29167 10.6641 10.2229 7.73281 13.8542 7.73281C17.4854 7.73281 20.4167 10.6641 20.4167 14.2953C20.4167 17.9266 17.4854 20.8578 13.8542 20.8578Z" fill="#EBEBF0"/>
</g>
<defs>
<clipPath id="clip0_326_216">
<rect width="35" height="35" fill="white" transform="translate(0 0.441147)"/>
</clipPath>
</defs>
</svg>
